# Blender 5.2.0 LTS
# www.blender.org
mtllib pack.mtl
o Plane
v -0.127754 0.000000 -0.000000
v 0.127754 0.000000 -0.000000
v -0.127754 0.184215 0.000000
v 0.127754 0.184215 0.000000
v -0.127754 0.184215 -0.015332
v -0.127754 0.000000 -0.015332
v 0.127754 0.000000 -0.015332
v 0.127754 0.184215 -0.015332
v 0.134402 0.207880 -0.005717
v -0.134402 0.207880 -0.005717
v 0.134402 0.207880 -0.009615
v -0.134402 0.207880 -0.009615
v 0.134402 0.244345 -0.005717
v -0.134402 0.244345 -0.005717
v 0.134402 0.244345 -0.009615
v -0.134402 0.244345 -0.009615
v -0.127754 -0.184215 0.000000
v 0.127754 -0.184215 0.000000
v -0.127754 -0.184215 -0.015332
v 0.127754 -0.184215 -0.015332
v 0.134402 -0.207880 -0.005717
v -0.134402 -0.207880 -0.005717
v 0.134402 -0.207880 -0.009615
v -0.134402 -0.207880 -0.009615
v 0.134402 -0.244345 -0.005717
v -0.134402 -0.244345 -0.005717
v 0.134402 -0.244345 -0.009615
v -0.134402 -0.244345 -0.009615
vn -0.9627 0.2705 -0.0000
vn -1.0000 -0.0000 -0.0000
vn 0.9627 0.2705 -0.0000
vn -0.0000 -0.2348 0.9720
vn -0.0000 -0.2348 -0.9720
vn -0.0000 -1.0000 -0.0000
vn -0.0000 -0.0000 -1.0000
vn 1.0000 -0.0000 -0.0000
vn -0.0000 -0.0000 1.0000
vn -0.9627 -0.2705 -0.0000
vn 0.9627 -0.2705 -0.0000
vn -0.0000 0.2348 0.9720
vn -0.0000 0.2348 -0.9720
vn -0.0000 1.0000 -0.0000
vt 0.965402 0.876598
vt 0.981074 0.876598
vt 0.975230 0.925453
vt 0.971246 0.925453
vt 0.975230 1.000000
vt 0.971246 1.000000
vt 0.996746 0.876598
vt 0.990902 0.925453
vt 0.986918 0.925453
vt 0.497352 0.835870
vt 0.949299 0.835870
vt 0.961060 0.879348
vt 0.485591 0.879348
vt 0.021884 0.835870
vt 0.473831 0.835870
vt 0.485591 0.879348
vt 0.010123 0.879348
vt 0.964990 0.274765
vt 0.964990 0.549530
vt 0.961007 0.549530
vt 0.961007 0.274765
vt 0.485591 0.945857
vt 0.010123 0.945857
vt 0.990902 1.000000
vt 0.986918 1.000000
vt 0.961060 0.945857
vt 0.949299 0.499877
vt 0.497352 0.499877
vt 0.491472 0.164094
vt 0.955179 0.164094
vt 0.981074 0.500000
vt 0.981074 0.123402
vt 0.996746 0.123402
vt 0.996746 0.500000
vt 0.981074 0.500000
vt 0.965402 0.500000
vt 0.965402 0.123402
vt 0.981074 0.123402
vt 0.971246 0.074547
vt 0.975230 0.074547
vt 0.971246 0.000000
vt 0.975230 0.000000
vt 0.986918 0.074547
vt 0.990902 0.074547
vt 0.485592 0.120406
vt 0.961060 0.120406
vt 0.021884 0.163883
vt 0.010123 0.120406
vt 0.485592 0.120406
vt 0.473831 0.163883
vt 0.961007 0.000000
vt 0.964990 0.000000
vt 0.964990 0.274765
vt 0.961007 0.274765
vt 0.010123 0.053897
vt 0.485591 0.053897
vt 0.986918 0.000000
vt 0.990902 0.000000
vt 0.485592 0.053897
vt 0.961060 0.053897
vt 0.473831 0.499877
vt 0.021884 0.499877
s 0
usemtl Material.002
f 8/1/1 4/2/1 9/3/1 11/4/1
f 11/4/2 9/3/2 13/5/2 15/6/2
f 3/2/3 5/7/3 12/8/3 10/9/3
f 5/10/4 8/11/4 11/12/4 12/13/4
f 4/14/5 3/15/5 10/16/5 9/17/5
f 13/18/6 14/19/6 16/20/6 15/21/6
f 9/17/7 10/16/7 14/22/7 13/23/7
f 10/9/8 12/8/8 16/24/8 14/25/8
f 12/13/9 11/12/9 15/26/9 16/22/9
f 7/27/9 8/11/9 5/10/9 6/28/9 19/29/9 20/30/9
f 3/2/8 1/31/8 17/32/8 19/33/8 6/34/8 5/7/8
f 2/35/2 4/2/2 8/1/2 7/36/2 20/37/2 18/38/2
f 20/37/10 23/39/10 21/40/10 18/38/10
f 23/39/2 27/41/2 25/42/2 21/40/2
f 17/32/11 22/43/11 24/44/11 19/33/11
f 19/29/12 24/45/12 23/46/12 20/30/12
f 18/47/13 21/48/13 22/49/13 17/50/13
f 25/51/14 27/52/14 28/53/14 26/54/14
f 21/48/7 25/55/7 26/56/7 22/49/7
f 22/43/8 26/57/8 28/58/8 24/44/8
f 24/45/9 28/59/9 27/60/9 23/46/9
f 1/61/7 3/15/7 4/14/7 2/62/7 18/47/7 17/50/7
