# Blender 5.2.0 LTS
# www.blender.org
mtllib card.mtl
o card_mesh
v -0.110000 0.000000 0.175000
v -0.125000 0.000000 0.154000
v -0.117500 0.000000 0.172187
v -0.122990 0.000000 0.164500
v 0.125000 -0.000000 0.154000
v 0.110000 -0.000000 0.175000
v 0.122990 -0.000000 0.164500
v 0.117500 -0.000000 0.172187
v -0.110000 0.000000 -0.175000
v -0.125000 0.000000 -0.154000
v -0.117500 0.000000 -0.172187
v -0.122990 0.000000 -0.164500
v 0.110000 -0.000000 -0.175000
v 0.125000 -0.000000 -0.154000
v 0.117500 -0.000000 -0.172187
v 0.122990 -0.000000 -0.164500
v -0.125000 0.001042 -0.154000
v -0.125000 0.001042 0.154000
v -0.122990 0.001042 0.164500
v -0.117500 0.001042 0.172187
v -0.110000 0.001042 0.175000
v 0.110000 0.001042 0.175000
v 0.117500 0.001042 0.172187
v 0.122990 0.001042 0.164500
v 0.125000 0.001042 0.154000
v 0.125000 0.001042 -0.154000
v 0.122990 0.001042 -0.164500
v 0.117500 0.001042 -0.172187
v 0.110000 0.001042 -0.175000
v -0.110000 0.001042 -0.175000
v -0.117500 0.001042 -0.172187
v -0.122990 0.001042 -0.164500
vn -0.0000 -1.0000 -0.0000
vn -0.0000 1.0000 -0.0000
vn 0.3512 -0.0000 -0.9363
vn -0.0000 -0.0000 1.0000
vn -0.0000 -0.0000 -1.0000
vn 0.3512 -0.0000 0.9363
vn -0.3512 -0.0000 -0.9363
vn 0.8137 -0.0000 0.5812
vn -0.8137 -0.0000 -0.5812
vn 0.9822 -0.0000 0.1880
vn -1.0000 -0.0000 -0.0000
vn -0.9822 -0.0000 -0.1880
vn 1.0000 -0.0000 -0.0000
vn -0.9822 -0.0000 0.1880
vn 0.9822 -0.0000 -0.1880
vn -0.8137 -0.0000 0.5812
vn 0.8137 -0.0000 -0.5812
vn -0.3512 -0.0000 0.9363
vt 0.993784 0.041739
vt 0.993784 0.653910
vt 0.989790 0.674779
vt 0.978877 0.690057
vt 0.963971 0.695649
vt 0.526706 0.695649
vt 0.511799 0.690057
vt 0.500886 0.674779
vt 0.496892 0.653910
vt 0.496892 0.041739
vt 0.500886 0.020869
vt 0.511799 0.005592
vt 0.526706 0.000000
vt 0.963971 0.000000
vt 0.978877 0.005592
vt 0.989790 0.020869
vt 0.000000 0.041739
vt 0.003994 0.020870
vt 0.014907 0.005592
vt 0.029813 0.000000
vt 0.467078 0.000000
vt 0.481985 0.005592
vt 0.492898 0.020869
vt 0.496892 0.041739
vt 0.496892 0.653910
vt 0.492898 0.674779
vt 0.481985 0.690057
vt 0.467079 0.695649
vt 0.029814 0.695649
vt 0.014907 0.690057
vt 0.003994 0.674779
vt 0.000000 0.653910
vt 0.999999 0.469107
vt 0.999999 0.485028
vt 0.997928 0.485028
vt 0.997928 0.469107
vt 0.997929 0.453186
vt 0.997928 0.015921
vt 0.999999 0.015921
vt 1.000000 0.453186
vt 0.999999 0.922293
vt 0.997928 0.922293
vt 0.997928 0.000000
vt 0.999999 0.000000
vt 0.999999 0.938214
vt 0.997928 0.938214
vt 0.993786 0.692217
vt 0.993786 0.673442
vt 0.995857 0.673442
vt 0.995857 0.692217
vt 0.995857 0.692217
vt 0.995857 0.673442
vt 0.997928 0.673442
vt 0.997928 0.692217
vt 0.993786 0.652194
vt 0.995857 0.652194
vt 0.995857 0.652194
vt 0.995857 0.040023
vt 0.997928 0.040023
vt 0.997928 0.652194
vt 0.993784 0.040023
vt 0.995856 0.040023
vt 0.995857 0.018775
vt 0.997928 0.018775
vt 0.993784 0.018775
vt 0.995855 0.018775
vt 0.995857 0.000000
vt 0.997928 0.000000
vt 0.993784 -0.000000
vt 0.995855 -0.000000
vt 0.997929 0.469107
vt 1.000000 0.469107
s 0
usemtl Material.001
f 2/1/1 10/2/1 12/3/1 11/4/1 9/5/1 13/6/1 15/7/1 16/8/1 14/9/1 5/10/1 7/11/1 8/12/1 6/13/1 1/14/1 3/15/1 4/16/1
f 18/17/2 19/18/2 20/19/2 21/20/2 22/21/2 23/22/2 24/23/2 25/24/2 26/25/2 27/26/2 28/27/2 29/28/2 30/29/2 31/30/2 32/31/2 17/32/2
f 15/33/3 13/34/3 29/35/3 28/36/3
f 1/37/4 6/38/4 22/39/4 21/40/4
f 13/34/5 9/41/5 30/42/5 29/35/5
f 6/38/6 8/43/6 23/44/6 22/39/6
f 9/41/7 11/45/7 31/46/7 30/42/7
f 8/47/8 7/48/8 24/49/8 23/50/8
f 11/51/9 12/52/9 32/53/9 31/54/9
f 7/48/10 5/55/10 25/56/10 24/49/10
f 10/57/11 2/58/11 18/59/11 17/60/11
f 12/52/12 10/57/12 17/60/12 32/53/12
f 5/55/13 14/61/13 26/62/13 25/56/13
f 2/58/14 4/63/14 19/64/14 18/59/14
f 14/61/15 16/65/15 27/66/15 26/62/15
f 4/63/16 3/67/16 20/68/16 19/64/16
f 16/65/17 15/69/17 28/70/17 27/66/17
f 3/71/18 1/37/18 21/40/18 20/72/18
